<?xml version="1.0" standalone="no"?>
<!DOCTYPE svg PUBLIC "-//W3C//DTD SVG 20010904//EN"
 "http://www.w3.org/TR/2001/REC-SVG-20010904/DTD/svg10.dtd">
<svg version="1.0" xmlns="http://www.w3.org/2000/svg"
 width="1280.000000pt" height="882.000000pt" viewBox="0 0 1280.000000 882.000000"
 preserveAspectRatio="xMidYMid meet">
<g transform="translate(0.000000,882.000000) scale(0.100000,-0.100000)"
fill="#03a9f4" stroke="none">
<path d="M176 8791 l-28 -29 34 -10 c18 -6 179 -52 358 -101 512 -142 560
-158 525 -165 -227 -47 -371 -127 -487 -270 -82 -103 -158 -278 -158 -368 0
-15 -4 -29 -8 -32 -5 -3 -46 3 -93 13 -117 26 -289 54 -295 49 -7 -8 154 -56
271 -81 l110 -23 5 -52 c5 -43 3 -52 -10 -52 -9 0 -94 20 -190 43 -102 26
-165 38 -154 30 47 -35 123 -66 240 -96 l126 -32 22 -75 c34 -114 87 -208 169
-297 l40 -43 -77 0 c-42 0 -76 -4 -76 -9 0 -4 10 -21 22 -36 19 -25 25 -27 68
-21 112 15 221 -31 380 -160 266 -217 350 -264 760 -427 424 -169 511 -213
677 -346 153 -121 177 -130 418 -152 71 -6 151 -17 177 -24 45 -11 49 -11 70
12 12 13 52 38 88 56 l65 32 180 1 c201 1 232 8 316 70 79 57 78 80 -8 252
-44 87 -57 123 -57 160 l-1 47 35 -2 c50 -3 161 -51 268 -116 90 -55 434 -302
752 -541 93 -69 196 -137 258 -168 89 -45 112 -53 173 -56 61 -4 74 -1 108 21
40 27 78 94 88 154 6 32 0 40 -148 186 -170 168 -294 272 -659 552 -135 103
-297 231 -360 284 -124 104 -293 258 -298 272 -2 5 13 16 35 25 54 23 119 13
241 -35 104 -43 201 -61 323 -61 80 0 202 -38 398 -124 169 -75 202 -86 316
-112 33 -8 103 -25 155 -39 166 -44 272 -31 324 39 73 98 40 178 -114 281 -71
47 -552 297 -721 375 -157 72 -271 107 -489 150 -107 22 -220 46 -250 55 -30
9 -167 72 -305 140 -172 86 -275 131 -330 145 -101 26 -269 46 -505 60 -353
21 -732 76 -1010 145 -98 25 -260 77 -649 210 -123 41 -362 114 -530 161 -252
70 -493 141 -546 161 -6 2 -23 -10 -39 -26z m1637 -526 c293 -101 391 -121
702 -145 770 -57 815 -66 1255 -258 161 -70 315 -123 530 -182 102 -28 221
-63 265 -77 265 -85 691 -284 955 -446 l135 -83 -1 -39 c-1 -32 -8 -45 -39
-72 -102 -88 -279 -64 -630 85 -284 121 -419 163 -574 182 -47 6 -142 24 -211
40 -227 53 -345 58 -461 19 -71 -24 -79 -49 -15 -49 41 0 52 -6 123 -68 133
-114 217 -181 538 -426 410 -314 554 -433 711 -590 130 -131 184 -208 184
-263 0 -12 -13 -37 -29 -55 -25 -28 -34 -32 -77 -31 -97 2 -169 45 -519 313
-310 237 -421 317 -572 412 -230 144 -447 236 -609 259 -136 18 -132 16 -162
89 -62 149 -157 287 -263 384 -73 66 -73 68 34 169 81 76 68 77 -46 4 -66 -42
-80 -47 -93 -36 -13 10 -15 25 -10 66 7 63 -8 72 -24 14 -5 -21 -17 -44 -25
-51 -23 -19 -60 19 -101 105 -47 94 -58 103 -50 40 12 -95 48 -147 211 -309
93 -92 170 -178 198 -221 114 -179 237 -559 237 -737 0 -91 -38 -142 -114
-155 -57 -9 -130 33 -222 130 -134 139 -223 282 -244 387 -23 117 -78 189
-293 384 -144 131 -206 198 -232 253 -9 18 -17 33 -19 33 -2 0 1 -23 6 -51 11
-60 6 -69 -23 -43 -22 19 -22 19 -14 -6 4 -14 34 -53 67 -86 33 -34 56 -64 50
-67 -27 -17 -169 -29 -282 -24 -136 6 -251 32 -372 84 l-68 29 51 50 c175 171
253 429 203 672 -30 145 -90 258 -197 369 -33 35 -58 63 -55 63 2 0 89 -29
191 -65z m-148 -1158 c44 -19 124 -49 178 -66 53 -18 97 -35 97 -38 0 -11
-237 7 -355 27 -172 29 -169 27 -99 62 32 16 63 34 69 39 14 14 24 12 110 -24z
m1846 -475 c62 -67 115 -168 154 -295 26 -83 27 -89 10 -107 -44 -49 -118 -62
-198 -34 l-46 16 5 41 c3 23 -1 94 -10 157 -17 120 -20 216 -10 268 8 40 22
33 95 -46z m-1033 -51 c63 -40 123 -104 166 -174 32 -54 35 -57 46 -38 18 35
65 53 105 42 65 -18 165 -105 264 -229 l31 -40 -36 -23 c-55 -34 -126 -30
-258 15 -59 20 -137 40 -171 45 -64 7 -113 36 -184 109 l-24 24 32 25 c37 29
38 45 10 98 -43 82 -116 135 -184 135 -42 0 -39 15 9 36 50 23 137 12 194 -25z
m252 1 c0 -10 7 -28 16 -41 14 -19 14 -25 3 -32 -8 -5 -18 -7 -24 -6 -14 5
-19 97 -6 97 6 0 11 -8 11 -18z m-375 -84 c36 -24 75 -76 75 -99 0 -9 -13 -28
-30 -44 -29 -28 -30 -28 -51 -9 -26 24 -100 155 -93 166 10 16 68 8 99 -14z"/>
<path d="M2246 7485 c-3 -9 -6 -24 -5 -33 0 -9 5 -4 10 12 9 32 6 48 -5 21z"/>
<path d="M4495 7381 c-3 -6 -12 -28 -20 -50 -12 -36 -12 -41 0 -41 8 0 17 10
19 23 3 12 7 34 11 50 5 27 1 35 -10 18z"/>
<path d="M4536 7361 c-19 -36 -23 -122 -4 -103 11 11 31 122 23 130 -2 2 -11
-10 -19 -27z"/>
<path d="M5047 7167 c-37 -74 -36 -95 5 -93 27 1 33 6 39 31 4 17 10 37 13 46
4 10 3 20 -3 24 -6 3 -11 15 -11 26 0 33 -15 21 -43 -34z"/>
<path d="M3060 6829 c-58 -26 -160 -91 -160 -102 0 -13 100 3 133 20 40 20 27
27 -17 9 -58 -24 -41 1 22 33 54 27 96 61 76 61 -5 0 -29 -10 -54 -21z"/>
<path d="M4221 6620 c-56 -76 -50 -94 9 -31 36 38 68 101 50 101 -4 0 -31 -31
-59 -70z"/>
<path d="M3104 6496 c-10 -8 -16 -18 -12 -22 10 -9 88 14 88 26 0 15 -54 12
-76 -4z"/>
<path d="M3212 6474 c-120 -21 -172 -42 -172 -67 0 -59 90 -191 151 -223 44
-22 93 -18 128 12 45 37 48 78 17 178 -14 46 -26 91 -26 100 0 18 0 18 -98 0z
m32 -48 c46 -19 76 -65 76 -116 0 -34 -6 -48 -34 -76 -19 -19 -42 -34 -52 -34
-20 0 -82 65 -125 132 -35 54 -31 69 26 94 39 17 68 17 109 0z"/>
<path d="M4870 6195 c-26 -14 -77 -92 -66 -102 3 -3 13 0 22 7 19 17 77 100
72 105 -1 2 -14 -3 -28 -10z"/>
<path d="M12005 7599 c-89 -8 -538 -70 -1155 -160 -224 -32 -477 -81 -545
-104 -22 -7 -74 -29 -115 -48 -101 -47 -245 -90 -750 -223 -476 -126 -684
-196 -905 -304 -78 -38 -154 -81 -169 -95 -30 -28 -31 -39 -10 -155 l6 -36
-139 -43 c-214 -66 -286 -97 -338 -143 -74 -65 -93 -136 -60 -228 18 -52 19
-60 3 -60 -26 0 -137 -59 -147 -77 -24 -47 -35 -150 -22 -222 29 -160 83 -181
353 -141 73 11 150 20 170 20 l36 0 -10 -37 c-22 -80 13 -192 83 -268 66 -72
73 -73 239 -64 229 14 528 56 974 140 88 16 161 28 163 26 2 -2 -5 -19 -14
-38 -26 -50 -25 -219 1 -277 16 -35 26 -44 59 -53 182 -49 335 -40 767 46 326
64 374 69 610 61 163 -5 223 -3 295 10 176 30 330 96 451 192 72 57 133 121
269 282 133 158 235 262 311 317 52 38 195 108 282 139 67 23 104 58 100 93
-4 37 -29 37 -105 2 -36 -17 -68 -29 -71 -26 -3 3 16 28 43 55 38 38 46 53 37
62 -14 14 -61 -17 -155 -101 -79 -71 -135 -131 -323 -356 -247 -293 -384 -414
-566 -499 -161 -76 -284 -98 -623 -116 -262 -14 -322 -22 -625 -82 -230 -45
-272 -51 -425 -55 -116 -4 -167 -2 -160 5 6 6 56 24 113 40 57 17 105 32 107
34 6 6 -41 192 -55 217 -8 15 -20 21 -45 21 -38 0 -205 -57 -218 -74 -5 -6 -6
-58 -3 -116 l4 -105 -19 40 c-22 48 -25 125 -5 164 22 41 82 90 151 122 96 45
218 76 565 145 343 68 489 107 581 156 55 29 128 93 117 103 -2 3 -38 -10 -79
-29 -233 -107 -654 -207 -1374 -327 -165 -27 -394 -67 -510 -89 -326 -61 -400
-71 -540 -77 -251 -11 -345 40 -345 185 0 35 4 62 10 62 6 0 10 -15 10 -33 0
-18 12 -57 27 -86 l26 -54 71 6 c79 6 165 33 173 53 2 7 -7 53 -21 101 -31
104 -32 130 -8 137 9 3 96 19 192 36 205 36 1047 205 1265 253 150 33 150 33
98 40 -69 10 -254 -8 -394 -38 -158 -34 -498 -101 -924 -184 -569 -110 -668
-124 -890 -125 l-160 -1 -23 46 c-26 52 -31 146 -11 194 l13 30 6 -50 c6 -51
18 -79 53 -127 23 -31 21 -31 147 3 42 11 86 29 99 38 24 18 24 20 12 82 -17
87 -36 128 -63 139 -13 5 -21 9 -18 10 3 1 64 14 135 29 72 15 254 60 405 99
151 39 320 78 374 87 115 19 116 19 116 -63 0 -62 20 -116 49 -132 12 -6 21
-9 21 -8 0 2 -9 27 -20 56 -11 29 -23 79 -26 111 l-7 58 85 26 c47 15 177 50
289 78 112 28 267 68 345 89 140 39 338 109 330 117 -11 11 -357 -69 -981
-226 -434 -109 -609 -149 -810 -186 -109 -20 -346 -55 -374 -55 -12 0 -35 116
-26 137 6 15 10 11 26 -22 34 -74 34 -74 119 -58 146 26 180 35 180 42 0 26
-23 128 -31 135 -12 13 -11 4 2 -30 25 -67 -27 -114 -124 -114 -57 0 -117 21
-117 40 0 6 19 31 42 56 105 114 412 215 1173 388 182 41 398 93 480 115 156
41 401 123 445 148 l25 14 -25 -6 c-14 -3 -98 -23 -187 -45 -88 -22 -363 -84
-610 -139 -513 -114 -579 -130 -686 -165 -43 -15 -88 -26 -100 -26 -32 0 -63
25 -76 61 -10 28 -9 30 7 23 34 -14 82 -16 149 -4 96 16 100 19 79 69 -22 57
-20 80 7 90 43 17 570 189 777 255 504 159 839 243 1250 311 118 20 352 62
520 95 567 110 639 120 965 129 187 6 281 13 305 22 l35 14 -55 6 c-76 10
-315 8 -435 -2z m-3417 -876 c5 -16 13 -35 16 -44 5 -12 -5 -21 -43 -38 -59
-25 -116 -28 -125 -6 -12 32 13 66 66 90 67 31 74 31 86 -2z m-584 -866 c9
-44 12 -85 8 -89 -10 -10 -158 -48 -187 -48 -50 0 -77 100 -42 153 30 45 114
78 178 69 25 -4 28 -10 43 -85z m507 -298 c20 -22 45 -147 33 -159 -5 -4 -44
-14 -86 -21 -87 -14 -101 -9 -125 49 -42 100 109 211 178 131z m1471 -304 c9
-27 18 -65 20 -83 l3 -33 -89 -30 c-102 -34 -132 -36 -145 -11 -15 28 -24 90
-17 125 5 29 12 34 79 59 39 15 86 26 102 25 27 -2 32 -8 47 -52z"/>
<path d="M11905 7420 c-16 -4 -69 -8 -117 -9 -51 -1 -88 -5 -88 -11 0 -23 230
-4 246 21 6 10 2 10 -41 -1z"/>
<path d="M11195 7359 c-33 -5 -67 -11 -75 -15 -13 -5 -13 -6 0 -14 12 -7 176
19 215 35 18 7 -79 3 -140 -6z"/>
<path d="M11542 7330 c-220 -40 -412 -176 -526 -371 -71 -123 -106 -305 -86
-450 36 -261 179 -460 415 -574 403 -196 877 8 1022 440 24 72 27 94 27 225 0
131 -3 153 -27 225 -39 116 -91 199 -187 296 -71 71 -101 93 -180 133 -52 25
-122 53 -155 62 -75 19 -233 26 -303 14z"/>
<path d="M10417 7183 c-12 -11 -8 -41 6 -46 16 -6 88 6 107 18 9 6 -3 12 -36
21 -57 15 -68 16 -77 7z"/>
<path d="M9653 6990 c-28 -17 -46 -50 -27 -50 15 0 84 44 88 57 8 19 -24 16
-61 -7z"/>
<path d="M9435 6971 c3 -5 1 -12 -5 -16 -5 -3 -10 -1 -10 4 0 17 -17 13 -24
-5 -9 -23 47 -79 70 -70 27 10 2 96 -28 96 -5 0 -7 -4 -3 -9z"/>
<path d="M10506 6817 c-15 -11 -10 -13 41 -12 91 3 103 4 103 15 0 15 -123 12
-144 -3z"/>
<path d="M5535 6592 c-3 -14 -4 -26 -1 -29 3 -3 1578 -222 1604 -223 8 0 -11
-47 -29 -72 -11 -16 -17 -28 -15 -28 11 0 370 80 373 83 2 2 -74 45 -168 95
-143 76 -170 87 -165 69 4 -12 9 -37 13 -54 5 -28 3 -33 -13 -33 -11 0 -373
49 -806 108 l-787 108 -6 -24z"/>
<path d="M9015 6498 c11 -55 48 -123 69 -127 19 -3 19 -2 3 23 -21 31 -22 47
-2 40 17 -7 19 4 6 39 -13 33 -39 57 -63 57 -17 0 -19 -4 -13 -32z"/>
<path d="M10511 6348 c-69 -9 -126 -32 -134 -52 -4 -9 18 -7 82 5 96 20 136
33 146 48 7 12 -3 12 -94 -1z"/>
<path d="M9050 6118 c0 -24 34 -109 50 -123 11 -10 20 -15 20 -12 0 18 -43
117 -55 127 -8 7 -15 10 -15 8z"/>
<path d="M8199 5950 c-2 -29 2 -66 12 -96 8 -25 14 -31 30 -27 14 4 18 11 13
22 -4 9 -13 34 -21 56 -16 46 -32 67 -34 45z"/>
<path d="M10530 5840 c-12 -8 -12 -10 5 -11 19 0 18 -1 -2 -11 -43 -21 -25
-31 40 -24 111 13 130 22 82 44 -31 14 -104 15 -125 2z"/>
<path d="M9335 5660 c9 -44 34 -105 40 -98 3 2 -2 29 -11 59 -19 64 -40 93
-29 39z"/>
<path d="M9246 5633 c8 -57 11 -63 30 -63 12 0 13 8 8 38 -15 81 -50 104 -38
25z"/>
<path d="M9295 5628 c9 -53 31 -108 43 -108 5 0 0 34 -12 75 -23 81 -42 102
-31 33z"/>
<path d="M4554 5603 c3 -16 17 -95 31 -178 14 -82 26 -156 28 -163 1 -8 17 7
35 33 18 26 37 44 42 39 4 -5 182 -313 395 -684 213 -371 394 -685 401 -698
13 -19 18 -21 37 -11 12 7 23 13 24 14 2 1 -179 318 -402 705 -324 564 -402
706 -390 713 8 4 33 9 55 10 22 1 40 2 40 3 0 5 -289 244 -295 244 -4 0 -4
-12 -1 -27z"/>
<path d="M8703 5523 c5 -32 16 -65 24 -73 13 -13 16 -13 29 4 23 32 17 65 -17
97 -17 16 -34 29 -39 29 -4 0 -3 -26 3 -57z"/>
<path d="M10424 5337 c13 -66 29 -98 43 -84 8 9 -22 106 -41 132 -13 18 -13
12 -2 -48z"/>
<path d="M8355 4702 c-933 -706 -947 -715 -956 -701 -5 8 -12 31 -15 52 -4 21
-10 35 -15 30 -18 -18 -199 -306 -196 -310 7 -6 357 101 357 110 0 4 -6 7 -12
7 -7 0 -26 11 -43 24 -26 22 -28 26 -15 39 8 8 191 146 405 307 890 670 876
659 862 680 -6 11 -16 20 -22 19 -5 0 -163 -116 -350 -257z"/>
<path d="M6170 3884 c-52 -7 -123 -10 -183 -7 l-98 6 -73 -37 c-89 -45 -189
-124 -360 -282 -72 -65 -203 -183 -293 -261 -175 -154 -253 -240 -299 -330
-26 -52 -29 -68 -29 -148 1 -78 5 -101 34 -170 74 -182 213 -349 607 -730 261
-253 379 -389 457 -527 l46 -82 -6 -106 c-10 -172 29 -316 123 -460 23 -36 61
-83 83 -104 38 -37 46 -56 141 -342 94 -281 103 -302 120 -292 13 9 16 17 10
32 -50 124 -67 171 -104 296 -24 80 -47 160 -51 178 l-7 33 41 -25 c141 -90
349 -127 517 -92 166 33 297 107 413 233 58 63 72 73 77 58 4 -9 1 -33 -5 -52
-16 -43 -10 -49 24 -27 19 13 25 23 21 38 -21 74 -18 121 11 184 l29 64 34
-89 c18 -48 36 -91 39 -95 8 -9 101 61 101 76 0 7 -31 73 -68 147 l-69 134 -7
112 c-6 99 -4 126 18 225 57 264 48 311 -137 703 -112 238 -148 346 -155 456
-4 79 -2 95 28 180 l33 94 -11 115 c-14 138 -42 254 -81 335 -26 53 -40 67
-118 120 -52 37 -109 87 -141 125 -131 158 -140 164 -247 181 -110 17 -117 21
-186 85 l-68 64 -63 -1 c-35 -1 -101 -7 -148 -15z m168 -40 c59 -8 67 -18 20
-28 l-33 -6 40 -25 c22 -13 48 -25 57 -25 27 0 50 -43 39 -71 -16 -43 -113
-111 -131 -92 -10 10 -130 228 -130 236 0 15 63 20 138 11z m-291 -33 c49 -23
63 -53 37 -82 -17 -18 -16 -19 20 -19 131 0 177 -160 87 -303 -22 -33 -44 -51
-95 -76 -99 -50 -122 -90 -137 -239 -5 -51 -13 -101 -19 -112 -36 -67 -211
-75 -307 -14 -13 8 -34 21 -48 30 -40 26 -29 6 23 -42 41 -38 44 -44 24 -44
-12 0 -54 16 -92 35 -80 40 -90 43 -65 15 17 -19 17 -21 0 -40 -17 -19 -17
-20 11 -32 17 -7 106 -14 221 -17 105 -3 195 -9 199 -13 16 -17 -21 -90 -66
-132 -78 -73 -246 -111 -385 -88 -33 6 -62 8 -63 7 -2 -2 15 -16 38 -31 82
-55 192 -45 400 37 86 33 97 35 112 22 16 -15 44 -81 36 -87 -1 -2 -48 -18
-102 -36 -80 -26 -95 -35 -81 -43 16 -9 41 -7 168 9 43 6 47 5 47 -15 0 -12
-12 -44 -26 -72 -40 -80 -25 -94 20 -19 22 36 67 106 101 155 167 244 236 383
305 615 67 227 102 295 170 330 48 24 111 25 179 3 52 -16 123 -69 142 -105
11 -21 11 -21 -18 0 -35 25 -110 44 -119 31 -3 -5 3 -9 13 -9 34 0 118 -47
150 -83 49 -56 63 -118 63 -284 0 -79 -7 -189 -15 -246 -27 -174 -23 -221 26
-334 39 -91 43 -108 52 -228 5 -71 15 -143 22 -160 12 -27 13 -20 15 80 l1
110 60 -65 c140 -150 197 -330 180 -567 l-6 -82 -45 57 c-87 109 -221 197
-370 243 -108 33 -293 33 -400 0 -229 -71 -398 -223 -485 -437 l-23 -57 -17
34 c-38 73 -139 211 -223 301 -48 52 -188 190 -312 306 -237 222 -331 323
-418 450 -142 206 -174 350 -106 483 89 176 432 509 754 731 213 147 277 169
367 129z"/>
<path d="M6000 3671 c0 -12 88 -46 96 -38 8 8 -57 47 -78 47 -10 0 -18 -4 -18
-9z"/>
<path d="M6611 3431 c-54 -10 -53 -33 1 -25 45 7 92 35 53 33 -11 -1 -35 -4
-54 -8z"/>
<path d="M6354 2654 c-22 -38 -45 -82 -52 -97 -15 -34 -16 -101 -2 -92 6 3 10
15 10 25 0 10 21 61 46 113 55 115 54 147 -2 51z"/>
<path d="M6346 2435 c-14 -21 -46 -124 -46 -147 0 -4 7 -8 16 -8 14 0 15 -7
10 -38 -3 -22 -3 -42 1 -46 4 -4 15 42 25 101 9 59 20 120 22 136 7 34 -6 35
-28 2z"/>
<path d="M6736 2130 c-4 -56 -10 -109 -13 -118 -6 -15 -4 -15 15 2 25 22 25
22 13 -22 -6 -18 -6 -43 -2 -55 8 -21 9 -20 14 8 16 78 18 149 7 214 -6 39
-15 71 -19 71 -5 0 -11 -45 -15 -100z"/>
<path d="M6373 2085 c-28 -55 -20 -120 20 -153 28 -23 33 29 10 106 -17 56
-22 63 -30 47z"/>
</g>
</svg>
